<?xml version="1.0" standalone="no"?>
<!DOCTYPE svg PUBLIC "-//W3C//DTD SVG 20010904//EN"
 "http://www.w3.org/TR/2001/REC-SVG-20010904/DTD/svg10.dtd">
<svg version="1.0" xmlns="http://www.w3.org/2000/svg"
 width="1280.000000pt" height="720.000000pt" viewBox="0 0 1280.000000 720.000000"
 preserveAspectRatio="xMidYMid meet">

<g transform="translate(0.000000,720.000000) scale(0.100000,-0.100000)"
fill="#000000" stroke="none">
<path d="M0 3600 l0 -3600 6400 0 6400 0 0 3600 0 3600 -6400 0 -6400 0 0
-3600z m8201 2563 c13 -16 12 -17 -3 -4 -10 7 -18 15 -18 17 0 8 8 3 21 -13z
m-88 -43 c301 -175 653 -517 878 -851 33 -49 62 -89 65 -89 18 0 -157 263
-270 405 -102 128 -321 351 -458 468 -60 50 -108 92 -108 95 0 2 30 -20 68
-49 623 -485 1045 -1162 1196 -1919 50 -251 60 -356 60 -650 -1 -198 -5 -307
-17 -390 -19 -135 -69 -392 -74 -386 -2 2 3 50 11 107 21 144 39 322 34 345
-2 10 -16 -42 -31 -116 -42 -200 -114 -406 -135 -385 -4 4 -7 113 -8 243 0
250 -2 271 -25 283 -8 4 -160 22 -338 39 -268 26 -326 29 -336 18 -7 -7 -41
-75 -75 -151 -63 -139 -92 -187 -112 -187 -11 0 -5 184 8 308 10 82 -10 61
-30 -33 -9 -47 -26 -109 -37 -138 -11 -28 -17 -41 -14 -27 72 346 69 669 -11
984 -97 385 -279 702 -569 991 -132 132 -110 124 34 -11 91 -85 193 -204 275
-318 31 -43 56 -76 56 -71 0 15 -94 163 -164 255 -65 88 -271 303 -410 430
-140 127 48 32 280 -141 95 -71 319 -278 383 -354 18 -22 51 -50 72 -62 l39
-22 264 157 c221 131 263 159 256 173 -5 9 -7 19 -4 22 21 21 -131 294 -260
467 -112 150 -277 325 -441 468 -161 140 -152 132 -134 132 8 0 45 -18 82 -40z
m-472 -947 c13 -16 12 -17 -3 -4 -10 7 -18 15 -18 17 0 8 8 3 21 -13z m1806
-2455 c-3 -8 -6 -5 -6 6 -1 11 2 17 5 13 3 -3 4 -12 1 -19z"/>
</g>
</svg>
